<?xml version="1.0" standalone="no"?>
<!DOCTYPE svg PUBLIC "-//W3C//DTD SVG 20010904//EN"
 "http://www.w3.org/TR/2001/REC-SVG-20010904/DTD/svg10.dtd">
<svg version="1.0" xmlns="http://www.w3.org/2000/svg"
 width="150.000000pt" height="150.000000pt" viewBox="0 0 150.000000 150.000000"
 preserveAspectRatio="xMidYMid meet">
<metadata>
Created by potrace 1.14, written by Peter Selinger 2001-2017
</metadata>
<g transform="translate(0.000000,150.000000) scale(0.100000,-0.100000)"
fill="#000000" stroke="none">
<path d="M579 1242 c-1 -4 -3 -114 -4 -245 -1 -220 -3 -239 -21 -257 -50 -49
-124 -22 -124 45 0 35 31 75 57 75 9 0 13 14 13 40 0 46 -7 48 -65 20 -47 -23
-85 -80 -85 -129 0 -46 34 -106 75 -131 68 -42 155 -21 202 50 22 31 23 43 24
219 1 183 -1 304 -4 308 -7 5 -67 10 -68 5z"/>
<path d="M768 1242 c-24 -3 -26 -7 -24 -40 l2 -37 62 -2 c137 -6 221 -83 229
-212 4 -56 1 -73 -19 -110 -31 -57 -85 -101 -145 -116 -45 -11 -48 -14 -51
-49 -3 -34 -1 -36 26 -36 85 0 197 76 242 166 32 66 38 154 14 231 -40 130
-190 222 -336 205z"/>
<path d="M754 1071 c-73 -34 -82 -60 -86 -258 -2 -109 1 -174 7 -176 6 -2 23
-1 40 2 l30 6 0 160 c1 89 5 167 9 174 5 7 22 19 40 26 84 35 137 -88 56 -130
-25 -13 -30 -22 -30 -50 0 -29 4 -35 20 -35 66 0 124 68 125 146 1 113 -109
183 -211 135z"/>
<path d="M812 489 c-13 -5 -20 -13 -17 -19 7 -12 45 5 45 20 0 6 -1 10 -2 9
-2 0 -13 -4 -26 -10z"/>
<path d="M50 432 c0 -15 -5 -33 -12 -40 -8 -8 -8 -15 2 -27 7 -8 10 -18 7 -22
-4 -3 -2 -14 4 -25 8 -15 18 -18 51 -14 67 8 94 48 75 109 -10 32 -41 47 -93
47 -31 0 -34 -3 -34 -28z m76 -10 c34 -23 15 -92 -26 -92 -23 0 -27 28 -5 36
8 4 15 12 15 20 0 8 -7 14 -15 14 -8 0 -15 7 -15 15 0 16 27 20 46 7z"/>
<path d="M235 448 c-17 -48 -44 -143 -40 -146 7 -7 46 19 40 27 -2 5 4 11 14
14 20 5 41 -9 41 -28 0 -6 9 -11 20 -12 22 -2 21 9 -10 102 -12 37 -22 51 -38
53 -12 2 -24 -3 -27 -10z m38 -58 c4 -14 0 -20 -13 -20 -13 0 -16 6 -12 25 5
28 17 26 25 -5z"/>
<path d="M350 381 c0 -70 2 -79 18 -77 14 2 17 14 18 72 1 63 -6 83 -28 84 -5
0 -8 -36 -8 -79z"/>
<path d="M464 446 c-3 -7 -4 -42 -2 -77 2 -49 7 -64 18 -64 8 0 16 7 16 15 1
8 2 21 3 29 0 8 4 12 7 8 4 -3 19 0 35 9 54 28 26 94 -40 94 -17 0 -34 -6 -37
-14z m76 -36 c0 -5 -9 -14 -19 -20 -22 -11 -31 2 -23 32 3 14 8 15 23 7 10 -5
19 -14 19 -19z"/>
<path d="M593 383 c2 -62 5 -78 17 -78 10 0 16 12 18 33 3 29 6 33 30 30 20
-2 26 -8 25 -23 -2 -11 1 -27 7 -35 18 -29 31 5 28 76 -2 53 -6 69 -18 69 -10
0 -15 -9 -14 -27 1 -24 -3 -28 -27 -28 -23 0 -28 5 -31 27 -2 16 -10 29 -20
31 -14 3 -16 -7 -15 -75z"/>
<path d="M765 395 c-10 -33 -19 -67 -22 -76 -3 -10 2 -16 13 -16 9 0 19 8 21
18 8 29 31 30 57 2 34 -37 46 -23 29 34 -29 93 -33 101 -58 99 -19 -1 -26 -11
-40 -61z m55 -12 c0 -7 -6 -13 -14 -13 -9 0 -12 8 -8 26 3 19 7 22 13 12 5 -7
9 -19 9 -25z"/>
<path d="M866 445 c-3 -9 3 -15 17 -17 19 -3 22 -10 25 -63 4 -68 4 -67 24
-60 10 4 13 18 12 48 -4 56 3 77 26 77 13 0 17 5 14 14 -8 20 -110 20 -118 1z"/>
<path d="M1050 432 c0 -15 -6 -34 -12 -40 -10 -10 -10 -15 -1 -20 6 -4 13 -21
15 -37 2 -25 8 -30 33 -32 64 -4 89 17 101 82 7 41 -34 75 -91 75 -43 0 -45
-1 -45 -28z m88 -15 c27 -21 3 -87 -33 -87 -23 0 -27 31 -5 37 25 7 26 23 1
30 -12 3 -17 11 -14 23 5 19 24 18 51 -3z"/>
<path d="M1239 455 c-1 -3 -2 -8 -3 -12 -1 -5 -9 -33 -19 -63 -21 -70 -21 -73
-2 -76 8 -1 15 2 15 6 0 16 31 39 44 34 8 -3 16 -14 19 -25 5 -18 37 -28 37
-11 0 4 -9 39 -21 77 -18 61 -24 71 -45 73 -13 1 -25 0 -25 -3z m33 -60 c4
-17 1 -25 -8 -25 -14 0 -19 31 -7 43 9 10 10 9 15 -18z"/>
<path d="M1325 452 c-11 -11 -4 -21 17 -24 20 -3 22 -9 23 -63 0 -46 4 -60 15
-60 11 0 16 15 18 63 3 53 6 63 20 60 17 -3 22 3 22 22 0 10 -105 12 -115 2z"/>
<path d="M247 275 c-7 -16 8 -29 23 -20 10 6 2 35 -10 35 -4 0 -10 -7 -13 -15z"/>
<path d="M1254 276 c-8 -22 3 -33 18 -18 9 9 9 15 0 24 -9 9 -13 7 -18 -6z"/>
</g>
</svg>
